<svg width="341" height="104" viewBox="0 0 341 104" fill="none" xmlns="http://www.w3.org/2000/svg">
<path d="M0 10.5316V102.684H18.427V10.5316H0ZM11.2109 26.4608H29.1225C34.0192 26.4608 37.885 27.6017 40.7199 29.8835C43.5548 32.0776 44.9723 35.4127 44.9723 39.8886C44.9723 44.2768 43.5548 47.6118 40.7199 49.8937C37.885 52.1755 34.0192 53.3165 29.1225 53.3165H11.2109V69.2456H29.1225C36.2528 69.2456 42.3092 68.0608 47.2918 65.6911C52.3603 63.3215 56.2261 59.9426 58.8892 55.5544C61.5524 51.0785 62.8839 45.8565 62.8839 39.8886C62.8839 33.8329 61.5524 28.611 58.8892 24.2228C56.2261 19.8346 52.3603 16.4557 47.2918 14.0861C42.3092 11.7165 36.2528 10.5316 29.1225 10.5316H11.2109V26.4608Z" fill="#1E293B"/>
<path d="M83.7822 83.8582C83.7822 82.103 84.1688 80.6549 84.9419 79.5139C85.7151 78.2852 86.9178 77.3637 88.55 76.7494C90.1823 76.0473 92.287 75.6962 94.8642 75.6962C98.0428 75.6962 101.05 76.135 103.884 77.0127C106.805 77.8903 109.425 79.2068 111.745 80.962V73.0633C110.886 72.0101 109.468 70.9131 107.493 69.7722C105.517 68.6312 103.068 67.6658 100.147 66.876C97.3125 66.0861 94.0051 65.6911 90.2252 65.6911C82.8372 65.6911 77.1244 67.4025 73.0868 70.8253C69.0491 74.2481 67.0303 78.8996 67.0303 84.7798C67.0303 88.9046 67.9753 92.4152 69.8653 95.3114C71.8411 98.1198 74.4183 100.27 77.5969 101.762C80.7755 103.254 84.2117 104 87.9057 104C91.5138 104 94.9501 103.342 98.2146 102.025C101.565 100.709 104.271 98.7342 106.333 96.1013C108.48 93.4684 109.554 90.2211 109.554 86.3595L107.493 78.4608C107.493 81.357 106.848 83.8582 105.56 85.9646C104.271 87.9831 102.596 89.5629 100.534 90.7038C98.4723 91.757 96.1528 92.2835 93.5756 92.2835C91.7715 92.2835 90.0964 91.9764 88.55 91.362C87.0896 90.6599 85.9299 89.6945 85.0708 88.4658C84.2117 87.1494 83.7822 85.6135 83.7822 83.8582ZM77.3392 59.2405C78.1982 58.6262 79.5298 57.8802 81.3338 57.0025C83.1379 56.1249 85.2856 55.3789 87.7769 54.7646C90.2682 54.1502 92.8883 53.843 95.6374 53.843C97.4414 53.843 99.0736 54.0186 100.534 54.3696C101.994 54.7207 103.24 55.2911 104.271 56.081C105.388 56.8709 106.204 57.8802 106.719 59.1089C107.235 60.2498 107.493 61.654 107.493 63.3215V102.684H123.6V59.7671C123.6 55.6422 122.483 52.1755 120.25 49.3671C118.016 46.4709 114.923 44.2768 110.972 42.7848C107.02 41.2928 102.51 40.5468 97.4414 40.5468C91.9434 40.5468 86.9608 41.3367 82.4936 42.9165C78.0264 44.4084 74.2465 45.9882 71.1539 47.6557L77.3392 59.2405Z" fill="#1E293B"/>
<path d="M177.632 65.8228V102.684H194.899V63.9798C194.899 56.6954 193.181 51.0346 189.744 46.9975C186.308 42.8726 181.068 40.8101 174.024 40.8101C169.814 40.8101 166.206 41.7316 163.199 43.5747C160.278 45.33 157.916 47.919 156.112 51.3418V42.1266H139.36V102.684H156.112V65.8228C156.112 63.2776 156.584 61.0835 157.529 59.2405C158.474 57.3975 159.849 55.9933 161.653 55.0278C163.457 53.9747 165.519 53.4481 167.838 53.4481C171.275 53.4481 173.766 54.5013 175.312 56.6076C176.858 58.7139 177.632 61.7857 177.632 65.8228Z" fill="#1E293B"/>
<path d="M256.29 0V102.684H273.041V0H256.29ZM207.58 72.4051C207.58 79.0751 208.912 84.7798 211.575 89.519C214.238 94.2582 217.76 97.8565 222.142 100.314C226.523 102.771 231.162 104 236.059 104C241.041 104 245.422 102.727 249.202 100.182C253.068 97.6371 256.075 93.9949 258.223 89.2557C260.456 84.5165 261.573 78.8996 261.573 72.4051C261.573 65.8228 260.456 60.2059 258.223 55.5544C256.075 50.8152 253.068 47.173 249.202 44.6278C245.422 42.0827 241.041 40.8101 236.059 40.8101C231.162 40.8101 226.523 42.0388 222.142 44.4962C217.76 46.9536 214.238 50.5519 211.575 55.2911C208.912 59.9426 207.58 65.6473 207.58 72.4051ZM224.848 72.4051C224.848 68.8068 225.578 65.6911 227.038 63.0582C228.499 60.4253 230.475 58.4068 232.966 57.0025C235.457 55.5983 238.12 54.8962 240.955 54.8962C243.447 54.8962 245.852 55.5983 248.171 57.0025C250.577 58.319 252.51 60.2937 253.97 62.9266C255.516 65.5595 256.29 68.719 256.29 72.4051C256.29 76.0911 255.516 79.2506 253.97 81.8836C252.51 84.5165 250.577 86.535 248.171 87.9392C245.852 89.2557 243.447 89.9139 240.955 89.9139C238.12 89.9139 235.457 89.2118 232.966 87.8076C230.475 86.4034 228.499 84.3848 227.038 81.7519C225.578 79.119 224.848 76.0034 224.848 72.4051Z" fill="#1E293B"/>
<path d="M301.182 83.8582C301.182 82.103 301.569 80.6549 302.342 79.5139C303.115 78.2852 304.318 77.3637 305.95 76.7494C307.582 76.0473 309.687 75.6962 312.264 75.6962C315.443 75.6962 318.449 76.135 321.284 77.0127C324.205 77.8903 326.825 79.2068 329.145 80.962V73.0633C328.286 72.0101 326.868 70.9131 324.892 69.7722C322.917 68.6312 320.468 67.6658 317.547 66.876C314.712 66.0861 311.405 65.6911 307.625 65.6911C300.237 65.6911 294.524 67.4025 290.487 70.8253C286.449 74.2481 284.43 78.8996 284.43 84.7798C284.43 88.9046 285.375 92.4152 287.265 95.3114C289.241 98.1198 291.818 100.27 294.997 101.762C298.175 103.254 301.612 104 305.306 104C308.914 104 312.35 103.342 315.615 102.025C318.965 100.709 321.671 98.7342 323.733 96.1013C325.88 93.4684 326.954 90.2211 326.954 86.3595L324.892 78.4608C324.892 81.357 324.248 83.8582 322.96 85.9646C321.671 87.9831 319.996 89.5629 317.934 90.7038C315.872 91.757 313.553 92.2835 310.975 92.2835C309.171 92.2835 307.496 91.9764 305.95 91.362C304.49 90.6599 303.33 89.6945 302.471 88.4658C301.612 87.1494 301.182 85.6135 301.182 83.8582ZM294.739 59.2405C295.598 58.6262 296.93 57.8802 298.734 57.0025C300.538 56.1249 302.685 55.3789 305.177 54.7646C307.668 54.1502 310.288 53.843 313.037 53.843C314.841 53.843 316.474 54.0186 317.934 54.3696C319.394 54.7207 320.64 55.2911 321.671 56.081C322.788 56.8709 323.604 57.8802 324.119 59.1089C324.635 60.2498 324.892 61.654 324.892 63.3215V102.684H341V59.7671C341 55.6422 339.883 52.1755 337.65 49.3671C335.416 46.4709 332.323 44.2768 328.372 42.7848C324.42 41.2928 319.91 40.5468 314.841 40.5468C309.343 40.5468 304.361 41.3367 299.893 42.9165C295.426 44.4084 291.646 45.9882 288.554 47.6557L294.739 59.2405Z" fill="#1E293B"/>
</svg>
