<svg width="41" height="41" viewBox="0 0 41 41" fill="none" xmlns="http://www.w3.org/2000/svg">
<path fill-rule="evenodd" clip-rule="evenodd" d="M29.2229 15.789L20.0869 27.789C19.7109 28.283 19.1289 28.575 18.5089 28.579H18.4949C17.8809 28.579 17.3009 28.295 16.9209 27.811L12.0569 21.597C11.3769 20.729 11.5289 19.471 12.3989 18.791C13.2669 18.109 14.5269 18.261 15.2069 19.133L18.4729 23.305L26.0409 13.367C26.7089 12.489 27.9629 12.317 28.8449 12.987C29.7229 13.657 29.8929 14.911 29.2229 15.789ZM20.633 0.578705C9.587 0.578705 0.632996 9.53271 0.632996 20.5787C0.632996 31.6227 9.587 40.5787 20.633 40.5787C31.679 40.5787 40.633 31.6227 40.633 20.5787C40.633 9.53271 31.679 0.578705 20.633 0.578705Z" fill="url(#paint0_linear_705_36226)"/>
<defs>
<linearGradient id="paint0_linear_705_36226" x1="0.632996" y1="20.5787" x2="40.633" y2="20.5787" gradientUnits="userSpaceOnUse">
<stop stop-color="#3B82F6"/>
<stop offset="1" stop-color="#0655D6"/>
</linearGradient>
</defs>
</svg>
